# AST/ASF file generated using VICON BodyLanguage
# -----------------------------------------------
:version 1.10
:name VICON
:units
  mass 1.0
  length 0.45
  angle deg
:documentation
   .ast/.asf automatically generated from VICON data using
   VICON BodyBuilder and BodyLanguage model FoxedUp or BRILLIANT.MOD
:root
   order TX TY TZ RX RY RZ
   axis XYZ
   position 0 0 0  
   orientation 0 0 0 
:bonedata
  begin
     id 1 
     name lhipjoint
     direction 0.702568 -0.596508 0.388042 
     length 2.56661 
     axis 0 0 0  XYZ
  end
  begin
     id 2 
     name lfemur
     direction 0.34202 -0.939693 0  
     length 6.58374  
     axis 0 0 20  XYZ
    dof rx ry rz
    limits (-160.0 20.0)
           (-70.0 70.0)
           (-60.0 70.0)
  end
  begin
     id 3 
     name ltibia
     direction 0.34202 -0.939693 0   
     length 6.62538   
     axis 0 0 20   XYZ
    dof rx
    limits (-10.0 170.0)
  end
  begin
     id 4 
     name lfoot
     direction 0.10455 -0.287249 0.952133   
     length 2.26699   
     axis -90 7.62852e-016 20   XYZ
    dof rx rz
    limits (-45.0 90.0)
           (-70.0 20.0)
  end
  begin
     id 5 
     name ltoes
     direction 1.53572e-011 -4.22322e-011 1   
     length 1.12949   
     axis -90 7.62852e-016 20   XYZ
    dof rx
    limits (-90.0 20.0)
  end
  begin
     id 6 
     name rhipjoint
     direction -0.728055 -0.574632 0.373811   
     length 2.66432  
     axis 0 0 0  XYZ 
  end
  begin
     id 7 
     name rfemur
     direction -0.34202 -0.939693 0   
     length 6.66732   
     axis 0 0 -20   XYZ
    dof rx ry rz
    limits (-160.0 20.0)
           (-70.0 70.0)
           (-70.0 60.0)
  end
  begin
     id 8 
     name rtibia
     direction -0.34202 -0.939693 0   
     length 6.59288   
     axis 0 0 -20   XYZ
    dof rx
    limits (-10.0 170.0)
 end
 begin
     id 9 
     name rfoot
     direction -0.119193 -0.327479 0.93731   
     length 2.38061  
     axis -90 -7.62852e-016 -20   XYZ
    dof rx rz
    limits (-45.0 90.0)
           (-20.0 70.0)
  end
  begin
     id 10 
     name rtoes
     direction -1.53547e-011 -4.21827e-011 1   
     length 1.17899   
     axis -90 -7.62852e-016 -20   XYZ
    dof rx
    limits (-90.0 20.0)
  end
  begin
     id 11 
     name lowerback
     direction -0.000416114 0.999912 -0.0132284   
     length 2.12109   
     axis 0 0 0   XYZ
    dof rx ry rz
    limits (-20.0 45.0)
           (-30.0 30.0)
           (-30.0 30.0)
  end
  begin
     id 12 
     name upperback
     direction -0.00136371 0.99809 0.0617608   
     length 2.10067   
     axis 0 0 0   XYZ
    dof rx ry rz
    limits (-20.0 45.0)
           (-30.0 30.0)
           (-30.0 30.0)
  end
  begin
     id 13 
     name thorax
     direction -3.43026e-005 0.997776 0.0666515   
     length 2.10618   
     axis 0 0 0   XYZ
    dof rx ry rz
    limits (-20.0 45.0)
           (-30.0 30.0)
           (-30.0 30.0)
  end
  begin
     id 14 
     name lowerneck
     direction 0.0398646 0.998418 0.0396592   
     length 1.83817   
     axis 0 0 0   XYZ
    dof rx ry rz
    limits (-20.0 45.0)
           (-30.0 30.0)
           (-30.0 30.0)
  end
  begin
     id 15 
     name upperneck
     direction -0.0367268 0.961527 -0.272244   
     length 1.81975   
     axis 0 0 0   XYZ
    dof rx ry rz
    limits (-20.0 45.0)
           (-30.0 30.0)
           (-30.0 30.0)
  end
  begin
     id 16
     name head
     direction -0.0182665 0.99536 -0.0944669  
     length 1.86026  
     axis 0 0 0   XYZ
    dof rx ry rz
    limits (-20.0 45.0)
           (-30.0 30.0)
           (-30.0 30.0)
  end
  begin
     id 17 
     name lclavicle
     direction 0.924239 0.361045 0.124212  
     length 3.26878  
     axis 0 0 0   XYZ
    dof ry rz
    limits (-20.0 10.0)
           (0.0 20.0)
  end
  begin
     id 18 
     name lhumerus
     direction 1 -4.48968e-011 -2.56583e-027   
     length 4.58538   
     axis 180 -30 -90   XYZ
    dof rx ry rz
    limits (-60.0 90.0)
           (-90.0 90.0)
           (-90.0 90.0)
  end
  begin
     id 19
     name lradius
     direction 1 -4.4898e-011 -5.50375e-027   
     length 2.68935   
     axis 180 -30 -90   XYZ
    dof rx
    limits (-10.0 170.0)
  end
  begin
     id 20
     name lwrist
     direction 1 -4.48939e-011 -1.48955e-026   
     length 1.34468   
     axis 9.0955e-015 90 90   XYZ
    dof ry
    limits (-180.0 0.0)
 end
  begin
     id 21 
     name lhand
     direction 1 -4.48936e-011 -2.97907e-026   
     length 0.585058   
     axis 1.90115e-014 90 90   XYZ
    dof rx rz
    limits (-90.0 90.0)
           (-45.0 45.0)
  end
  begin
     id 22 
     name lfingers
     direction 1 -4.49082e-011 -5.96235e-026   
     length 0.471689   
     axis 3.80223e-014 90 90   XYZ
    dof rx
    limits (0.0 90.0)
  end
  begin
     id 23
     name lthumb
     direction 0.707107 -6.3489e-011 0.707107   
     length 0.677253   
     axis -90 45 -3.84942e-014   XYZ
    dof rx rz
    limits (-45.0 45.0)
           (-45.0 45.0)
  end
  begin
     id 24 
     name rclavicle
     direction -0.923098 0.371783 0.0983239   
     length 3.19656  
     axis 0 0 0   XYZ 
    dof ry rz
    limits (-10.0 20.0)
           (-20.0 0.0)
  end
  begin
     id 25 
     name rhumerus
     direction -1 -4.48976e-011 -2.5492e-027  
     length 4.4745   
     axis 180 30 90   XYZ
    dof rx ry rz
    limits (-90.0 60.0)
           (-90.0 90.0)
           (-90.0 90.0)
  end
  begin
     id 26 
     name rradius
     direction -1 -4.48941e-011 -4.36555e-027   
     length 2.93896   
     axis 180 30 90   XYZ
    dof rx
    limits (-10.0 170.0)
  end
  begin
     id 27 
     name rwrist
     direction -1 -4.49044e-011 -1.49032e-026   
     length 1.46948   
     axis 9.0955e-015 -90 -90   XYZ
    dof ry
    limits (-180.0 0.0)
  end
  begin
     id 28
     name rhand
     direction -1 -4.48826e-011 -2.97749e-026   
     length 0.405092   
     axis 1.90115e-014 -90 -90   XYZ
    dof rx rz
    limits (-90.0 90.0)
           (-45.0 45.0)
  end
  begin
     id 29
     name rfingers
     direction -1 -4.49209e-011 -5.96602e-026   
     length 0.326596   
     axis 3.80223e-014 -90 -90   XYZ
    dof rx
    limits (0.0 90.0)
  end
  begin
     id 30
     name rthumb
     direction -0.707107 -6.34776e-011 0.707107   
     length 0.468928   
     axis -90 -45 3.84942e-014   XYZ
    dof rx rz
    limits (-45.0 45.0)
           (-45.0 45.0)
  end
:hierarchy
  begin
    root lhipjoint rhipjoint lowerback
    lhipjoint lfemur
    lfemur ltibia
    ltibia lfoot
    lfoot ltoes
    rhipjoint rfemur
    rfemur rtibia
    rtibia rfoot
    rfoot rtoes
    lowerback upperback
    upperback thorax
    thorax lowerneck lclavicle rclavicle
    lowerneck upperneck
    upperneck head
    lclavicle lhumerus
    lhumerus lradius
    lradius lwrist
    lwrist lhand lthumb
    lhand lfingers
    rclavicle rhumerus
    rhumerus rradius
    rradius rwrist
    rwrist rhand rthumb
    rhand rfingers
  end

#!OML:ASF H:\Punching\Project 1\Capture day 1\Session 1\female.ASF
:FULLY-SPECIFIED
:DEGREES
1
root -1.79186 15.039 -3.91612 11.8187 -22.3541 -4.57216
lowerback -6.29679 -1.83746 5.26227
upperback -6.73194 -2.66449 1.42322
thorax -3.63355 -1.5511 -1.54071
lowerneck -13.5322 -1.94919 0.345956
upperneck 29.3339 -1.74146 -4.61855
head 11.78 -1.4274 -2.04416
rclavicle 3.0911e-014 2.26118e-014
rhumerus -43.3574 24.2954 -89.1118
rradius 126.328
rwrist -22.6994
rhand -11.8915 -1.1956
rfingers 7.12502
rthumb 14.1616 -30.6929
lclavicle 3.0911e-014 2.26118e-014
lhumerus -45.0123 -10.5837 90.2107
lradius 133.076
lwrist -2.84811
lhand -19.8118 5.40643
lfingers 7.12502
lthumb 6.52146 35.286
rfemur -11.3317 3.10491 26.6525
rtibia 33.8892
rfoot -30.5366 -22.1113
rtoes -0.301003
lfemur -38.6291 -10.7934 1.7571
ltibia 39.0268
lfoot -16.3184 26.0581
ltoes 19.0257
2
root -1.78695 15.0348 -3.89759 11.8269 -22.4535 -4.56157
lowerback -6.52659 -1.81139 5.32013
upperback -6.74508 -2.64662 1.47849
thorax -3.51874 -1.54163 -1.52424
lowerneck -13.5149 -1.9145 0.408293
upperneck 29.4065 -1.66626 -4.75885
head 11.805 -1.40569 -2.09911
rclavicle -8.41853e-014 1.59028e-015
rhumerus -42.8651 24.3041 -88.8493
rradius 126.383
rwrist -22.5205
rhand -11.9833 -1.18839
rfingers 7.12502
rthumb 14.0731 -30.6919
lclavicle -8.41853e-014 1.59028e-015
lhumerus -44.8561 -10.4301 89.8946
lradius 133.303
lwrist -2.72324
lhand -19.9546 5.50154
lfingers 7.12502
lthumb 6.38364 35.3853
rfemur -11.2999 3.12195 26.5662
rtibia 33.9338
rfoot -30.5949 -22.0434
rtoes -0.47595
lfemur -38.5013 -10.7799 1.62137
ltibia 38.9865
lfoot -16.3986 26.1747
ltoes 18.857
3
root -1.78134 15.0314 -3.88085 11.8402 -22.5175 -4.55704
lowerback -6.68115 -1.79554 5.37218
upperback -6.7911 -2.63626 1.53699
thorax -3.4807 -1.5378 -1.49716
lowerneck -13.4719 -1.88136 0.468346
upperneck 29.4569 -1.59819 -4.88236
head 11.8162 -1.38495 -2.14726
rclavicle -1.27346e-014 -1.82882e-014
rhumerus -42.41 24.2726 -88.6041
rradius 126.471
rwrist -22.3994
rhand -12.0016 -1.14337
rfingers 7.12502
rthumb 14.0555 -30.6481
lclavicle -1.27346e-014 -1.82882e-014
lhumerus -44.7341 -10.218 89.5951
lradius 133.511
lwrist -2.59106
lhand -20.0079 5.56974
lfingers 7.12502
lthumb 6.33215 35.4551
rfemur -11.2872 3.13911 26.5015
rtibia 33.9723
rfoot -30.6158 -22.0437
rtoes -0.638417
lfemur -38.3811 -10.9793 1.55414
ltibia 38.9573
lfoot -16.564 26.4281
ltoes 18.4335
4
root -1.77652 15.0278 -3.86377 11.8101 -22.5478 -4.54373
lowerback -6.78526 -1.80101 5.34819
upperback -6.83784 -2.64706 1.63522
thorax -3.46657 -1.5408 -1.38538
lowerneck -13.3973 -1.85889 0.468788
upperneck 29.4899 -1.52804 -5.01362
head 11.8151 -1.37064 -2.18665
rclavicle -2.17669e-014 9.34288e-015
rhumerus -41.9918 24.2776 -88.3529
rradius 126.611
rwrist -22.3029
rhand -12.1324 -1.14473
rfingers 7.12502
rthumb 13.9294 -30.6582
lclavicle -2.17669e-014 9.34288e-015
lhumerus -44.6387 -10.0606 89.3955
lradius 133.715
lwrist -2.52634
lhand -20.1086 5.69642
lfingers 7.12502
lthumb 6.23495 35.5847
rfemur -11.2143 3.24571 26.4484
rtibia 34.012
rfoot -30.6969 -22.1046
rtoes -0.599223
lfemur -38.2605 -11.3931 1.55059
ltibia 38.9247
lfoot -16.862 26.7879
ltoes 18.2589
5
root -1.77086 15.0245 -3.84668 11.791 -22.5643 -4.51565
lowerback -6.90438 -1.80587 5.34255
upperback -6.89356 -2.65893 1.71526
thorax -3.45566 -1.54583 -1.30294
lowerneck -13.3235 -1.83631 0.47712
upperneck 29.5389 -1.46336 -5.13267
head 11.8204 -1.35653 -2.22418
rclavicle -1.08089e-014 1.86858e-014
rhumerus -41.5793 24.2606 -88.1151
rradius 126.736
rwrist -22.2069
rhand -12.2242 -1.15019
rfingers 7.12502
rthumb 13.8409 -30.6697
lclavicle -1.08089e-014 1.86858e-014
lhumerus -44.5441 -9.89754 89.1702
lradius 133.922
lwrist -2.43164
lhand -20.1944 5.78466
lfingers 7.12502
lthumb 6.15211 35.6753
rfemur -11.1626 3.28136 26.3734
rtibia 34.0516
rfoot -30.7635 -22.1306
rtoes -0.641959
lfemur -38.1688 -11.7793 1.52159
ltibia 38.8922
lfoot -17.1968 27.1251
ltoes 18.298
6
root -1.76489 15.0216 -3.82987 11.7623 -22.548 -4.4709
lowerback -7.00141 -1.8208 5.3126
upperback -6.96184 -2.68116 1.79753
thorax -3.46943 -1.55567 -1.20375
lowerneck -13.2332 -1.81996 0.464
upperneck 29.5909 -1.40633 -5.23838
head 11.8237 -1.34653 -2.2539
rclavicle 4.13969e-014 -1.39149e-015
rhumerus -41.1986 24.2322 -87.8887
rradius 126.88
rwrist -22.1422
rhand -12.3201 -1.16072
rfingers 7.12502
rthumb 13.7486 -30.6865
lclavicle 4.13969e-014 -1.39149e-015
lhumerus -44.4632 -9.75307 88.971
lradius 134.124
lwrist -2.34177
lhand -20.2768 5.85744
lfingers 7.12502
lthumb 6.07259 35.7504
rfemur -11.1063 3.3 26.289
rtibia 34.0917
rfoot -30.8356 -22.1719
rtoes -0.665036
lfemur -38.1001 -12.2541 1.50393
ltibia 38.8573
lfoot -17.6076 27.5008
ltoes 18.5282
7
root -1.7589 15.0191 -3.81325 11.7251 -22.5034 -4.40857
lowerback -7.08657 -1.84388 5.25707
upperback -7.03811 -2.71198 1.87978
thorax -3.49725 -1.56908 -1.08994
lowerneck -13.139 -1.81012 0.432598
upperneck 29.6568 -1.35798 -5.33047
head 11.8319 -1.34091 -2.27699
rclavicle -1.63997e-015 1.98785e-014
rhumerus -40.8454 24.1882 -87.673
rradius 127.04
rwrist -22.1065
rhand -12.3992 -1.18755
rfingers 7.12502
rthumb 13.6723 -30.7185
lclavicle -1.63997e-015 1.98785e-014
lhumerus -44.3864 -9.63291 88.7933
lradius 134.318
lwrist -2.25972
lhand -20.3537 5.90989
lfingers 7.12502
lthumb 5.99835 35.805
rfemur -11.0468 3.30739 26.194
rtibia 34.1337
rfoot -30.9126 -22.2292
rtoes -0.682203
lfemur -38.0527 -12.7839 1.48743
ltibia 38.8202
lfoot -18.07 27.8947
ltoes 18.9189
8
root -1.75315 15.0169 -3.797 11.6826 -22.4379 -4.33348
lowerback -7.16175 -1.86962 5.17949
upperback -7.11882 -2.74449 1.95808
thorax -3.53421 -1.58263 -0.967535
lowerneck -13.046 -1.80798 0.387942
upperneck 29.7337 -1.32312 -5.40274
head 11.8446 -1.34045 -2.29263
rclavicle 2.13694e-014 1.43125e-014
rhumerus -40.5186 24.118 -87.4702
rradius 127.217
rwrist -22.1008
rhand -12.4633 -1.21926
rfingers 7.12502
rthumb 13.6106 -30.7543
lclavicle 2.13694e-014 1.43125e-014
lhumerus -44.3002 -9.54449 88.6314
lradius 134.497
lwrist -2.19221
lhand -20.4218 5.95071
lfingers 7.12502
lthumb 5.93259 35.8476
rfemur -10.9861 3.31582 26.0943
rtibia 34.176
rfoot -30.9917 -22.3092
rtoes -0.692812
lfemur -38.0231 -13.3439 1.47128
ltibia 38.7845
lfoot -18.5572 28.2952
ltoes 19.3838
9
root -1.74758 15.0153 -3.78109 11.6358 -22.3505 -4.24144
lowerback -7.23216 -1.89825 5.07827
upperback -7.20108 -2.77939 2.03006
thorax -3.57439 -1.59644 -0.838429
lowerneck -12.9642 -1.81408 0.33265
upperneck 29.8258 -1.30288 -5.45543
head 11.8654 -1.34551 -2.30183
rclavicle -5.4964e-014 -1.98785e-015
rhumerus -40.2069 24.0064 -87.265
rradius 127.4
rwrist -22.0937
rhand -12.4212 -1.22844
rfingers 7.12502
rthumb 13.6511 -30.7608
lclavicle -5.4964e-014 -1.98785e-015
lhumerus -44.1932 -9.48425 88.4783
lradius 134.654
lwrist -2.14932
lhand -20.4723 5.96435
lfingers 7.12502
lthumb 5.88388 35.8627
rfemur -10.9264 3.3153 25.9837
rtibia 34.2176
rfoot -31.0693 -22.405
rtoes -0.710558
lfemur -38.0104 -13.9068 1.44184
ltibia 38.752
lfoot -19.0212 28.6854
ltoes 19.8173
10
root -1.74287 15.0138 -3.76588 11.5905 -22.2611 -4.15212
lowerback -7.29794 -1.92167 4.96094
upperback -7.2773 -2.80643 2.09853
thorax -3.60944 -1.60533 -0.703807
lowerneck -12.9086 -1.8275 0.27587
upperneck 29.9344 -1.29753 -5.48978
head 11.8978 -1.35543 -2.307
rclavicle 9.64106e-015 4.77083e-015
rhumerus -39.9035 23.8543 -87.0609
rradius 127.588
rwrist -22.0793
rhand -12.2995 -1.22143
rfingers 7.12502
rthumb 13.7683 -30.7459
lclavicle 9.64106e-015 4.77083e-015
lhumerus -44.0567 -9.45926 88.3297
lradius 134.79
lwrist -2.13865
lhand -20.5079 5.96383
lfingers 7.12502
lthumb 5.84946 35.8631
rfemur -10.8676 3.36 25.8861
rtibia 34.2576
rfoot -31.1479 -22.5412
rtoes -0.70855
lfemur -38.0042 -14.4553 1.42071
ltibia 38.7245
lfoot -19.4596 29.0635
ltoes 20.1899
11
root -1.73838 15.0125 -3.75104 11.5486 -22.1579 -4.06277
lowerback -7.35751 -1.94553 4.8349
upperback -7.35156 -2.83323 2.16373
thorax -3.6454 -1.6136 -0.567558
lowerneck -12.8788 -1.84584 0.218815
upperneck 30.0617 -1.30238 -5.51074
head 11.9428 -1.36864 -2.30967
rclavicle 1.09829e-014 5.56597e-015
rhumerus -39.6175 23.683 -86.8669
rradius 127.784
rwrist -22.0614
rhand -12.1646 -1.21649
rfingers 7.12502
rthumb 13.8984 -30.732
lclavicle 1.09829e-014 5.56597e-015
lhumerus -43.9011 -9.46136 88.1911
lradius 134.912
lwrist -2.16826
lhand -20.5404 5.96046
lfingers 7.12502
lthumb 5.81811 35.8606
rfemur -10.8105 3.40729 25.7939
rtibia 34.2955
rfoot -31.2268 -22.693
rtoes -0.712566
lfemur -38.0116 -14.9892 1.40229
ltibia 38.7024
lfoot -19.8545 29.4211
ltoes 20.4769
12
root -1.73406 15.0114 -3.73679 11.5128 -22.0452 -3.97462
lowerback -7.41453 -1.96809 4.70355
upperback -7.42073 -2.85799 2.2241
thorax -3.67713 -1.6204 -0.433379
lowerneck -12.881 -1.8683 0.163659
upperneck 30.2064 -1.31693 -5.51748
head 12.0013 -1.38456 -2.3099
rclavicle -6.57977e-014 1.59028e-015
rhumerus -39.3472 23.5045 -86.6901
rradius 127.987
rwrist -22.0493
rhand -12.0832 -1.22191
rfingers 7.12502
rthumb 13.9768 -30.7321
lclavicle -6.57977e-014 1.59028e-015
lhumerus -43.7217 -9.49397 88.0599
lradius 135.022
lwrist -2.23019
lhand -20.5773 5.94055
lfingers 7.12502
lthumb 5.78243 35.8417
rfemur -10.759 3.46312 25.7074
rtibia 34.3308
rfoot -31.3087 -22.8567
rtoes -0.705575
lfemur -38.0348 -15.5083 1.39074
ltibia 38.6859
lfoot -20.2271 29.7547
ltoes 20.7311
